# xmcd
#
# Track frame offsets: 
#        150
#        15958
#        29817
#        46055
#        66425
#        85815
#        107804
#        126507
#        143757
#        160550
#        178633
#        197870
#
# Disc length: 2850 seconds
#
# Revision: 0
# Processed by: cddbd v1.4PL0 Copyright (c) Steve Scherf et al.
# Submitted via: ExactAudioCopy v0.95a3
#
DISCID=a10b200c
DTITLE=鄧志浩 - 妳是我永遠的春天
DYEAR=2003
DGENRE=Easy Listening
TTITLE0=漂泊
TTITLE1=妳是我永遠的春天
TTITLE2=哦！阿珠
TTITLE3=在燈火闌珊處等妳
TTITLE4=月光光
TTITLE5=我心深處
TTITLE6=情難了
TTITLE7=熱情的紅太陽
TTITLE8=走過紅塵
TTITLE9=1998中秋慕情
TTITLE10=教我如何不想妳
TTITLE11=加點陽光加點愛
EXTD=
EXTT0=
EXTT1=
EXTT2=
EXTT3=
EXTT4=
EXTT5=
EXTT6=
EXTT7=
EXTT8=
EXTT9=
EXTT10=
EXTT11=
PLAYORDER=
